<svg width="688" height="144" viewBox="0 0 688 144" fill="none" xmlns="http://www.w3.org/2000/svg">
<g clip-path="url(#clip0_104_2)">
<path d="M103.953 77V7.625H121.953C129.797 7.625 135.344 9.14062 138.594 12.1719C141.844 15.1719 143.469 18.75 143.469 22.9062C143.469 26.2812 142.375 29.6406 140.188 32.9844C138 36.2969 134.344 38.9219 129.219 40.8594C133.688 42.2344 137.031 43.8125 139.25 45.5938C141.5 47.3438 143.219 49.4688 144.406 51.9688C145.625 54.4375 146.234 57 146.234 59.6562C146.234 62.875 145.406 65.875 143.75 68.6562C142.094 71.4375 139.906 73.5312 137.188 74.9375C134.469 76.3125 130.203 77 124.391 77H103.953ZM113.703 69.6406H115.719C122.656 69.6406 127.172 69.2656 129.266 68.5156C131.359 67.7344 132.969 66.4688 134.094 64.7188C135.25 62.9375 135.828 60.9375 135.828 58.7188C135.828 54.7188 133.984 51.3281 130.297 48.5469C126.641 45.7344 122.031 44.3281 116.469 44.3281H113.703V69.6406ZM113.703 38.0938H116.844C122.562 38.0938 126.75 36.875 129.406 34.4375C132.062 31.9688 133.391 28.8594 133.391 25.1094C133.391 21.8281 132.203 19.3281 129.828 17.6094C127.484 15.8594 123.391 14.9844 117.547 14.9844H113.703V38.0938ZM185.703 70.5312C182.953 73.0625 180.234 74.9688 177.547 76.25C174.891 77.5312 172.281 78.1719 169.719 78.1719C166.125 78.1719 162.781 76.9844 159.688 74.6094C156.594 72.2344 155.047 68.7656 155.047 64.2031C155.047 59.2031 157.203 55.0781 161.516 51.8281C165.828 48.5469 172.719 46.9062 182.188 46.9062H184.344V40.7656C184.344 38.3281 184.016 36.5625 183.359 35.4688C182.703 34.3438 181.672 33.4688 180.266 32.8438C178.891 32.2188 177.172 31.9062 175.109 31.9062C170.328 31.9062 165.109 33.4062 159.453 36.4062V28.7656C165.672 26.2344 171.531 24.9688 177.031 24.9688C180.031 24.9688 182.781 25.4531 185.281 26.4219C187.812 27.3594 189.828 28.8594 191.328 30.9219C192.828 32.9531 193.578 36.2344 193.578 40.7656V63.8281C193.578 66.3906 193.781 68.125 194.188 69.0312C194.594 69.9062 195.156 70.5781 195.875 71.0469C196.625 71.5156 197.484 71.75 198.453 71.75C198.859 71.75 199.453 71.6875 200.234 71.5625L200.891 76.6719C198.797 77.6719 196.484 78.1719 193.953 78.1719C192.266 78.1719 190.641 77.625 189.078 76.5312C187.516 75.4375 186.391 73.4375 185.703 70.5312ZM184.344 65.5156V52.3438L181.391 52.25C176.547 52.25 172.484 53.1875 169.203 55.0625C165.922 56.9375 164.281 59.4844 164.281 62.7031C164.281 64.9219 165.078 66.7969 166.672 68.3281C168.297 69.8594 170.188 70.625 172.344 70.625C174.281 70.625 176.25 70.2031 178.25 69.3594C180.25 68.4844 182.281 67.2031 184.344 65.5156ZM247.859 75.4531C241.891 77.2656 236.734 78.1719 232.391 78.1719C227.859 78.1719 223.703 76.9531 219.922 74.5156C216.141 72.0469 213.281 68.8125 211.344 64.8125C209.438 60.8125 208.484 56.2969 208.484 51.2656C208.484 43.7656 210.562 37.5156 214.719 32.5156C218.875 27.4844 225.297 24.9688 233.984 24.9688C237.984 24.9688 242.422 25.5156 247.297 26.6094V34.3438C242.078 32.8125 237.828 32.0469 234.547 32.0469C229.359 32.0469 225.453 33.9844 222.828 37.8594C220.203 41.7031 218.891 46.2656 218.891 51.5469C218.891 57.2656 220.359 61.8906 223.297 65.4219C226.266 68.9531 230.109 70.7188 234.828 70.7188C239.047 70.7188 243.391 69.6406 247.859 67.4844V75.4531ZM261.734 77V2.98438H270.969V50.7969L292.531 26.0938H302.469L281.891 49.8594L306.734 77H294.922L270.969 50.8906V77H261.734ZM355.203 75.3594C349.016 77.2344 343.719 78.1719 339.312 78.1719C331.406 78.1719 325.188 75.5156 320.656 70.2031C316.125 64.8594 313.859 58.5625 313.859 51.3125C313.859 46.5312 314.859 41.9844 316.859 37.6719C318.859 33.3594 321.469 30.1562 324.688 28.0625C327.938 25.9688 331.75 24.9219 336.125 24.9219C342 24.9219 346.688 27.0312 350.188 31.25C353.688 35.4688 355.438 41.7812 355.438 50.1875L355.391 53H323.281C323.781 57.5 324.75 60.9688 326.188 63.4062C327.625 65.8438 329.531 67.75 331.906 69.125C334.312 70.4688 337.359 71.1406 341.047 71.1406C342.922 71.1406 344.781 70.9844 346.625 70.6719C348.5 70.3281 351.359 69.4531 355.203 68.0469V75.3594ZM323.703 46.0625H346.156C346.156 40.9688 345.156 37.3281 343.156 35.1406C341.188 32.9531 338.656 31.8594 335.562 31.8594C332.031 31.8594 329.266 33.0469 327.266 35.4219C325.297 37.7656 324.109 41.3125 323.703 46.0625ZM371.422 77V26.0938H380.656V35.6562C383 32.25 385.719 29.625 388.812 27.7812C391.938 25.9062 395.172 24.9688 398.516 24.9688C402.828 24.9688 406.328 26.3438 409.016 29.0938C411.703 31.8125 413.047 35.5938 413.047 40.4375V77H403.812V43.4375C403.812 39.9062 403.5 37.5781 402.875 36.4531C402.25 35.3281 401.375 34.4688 400.25 33.875C399.125 33.25 397.922 32.9375 396.641 32.9375C394.359 32.9375 391.891 33.6406 389.234 35.0469C386.609 36.4531 383.75 39.4531 380.656 44.0469V77H371.422ZM430.766 77V7.625H453.828C462.734 7.625 469.484 8.92188 474.078 11.5156C478.672 14.0781 482.266 17.8438 484.859 22.8125C487.484 27.75 488.797 33.7031 488.797 40.6719C488.797 47.2656 487.594 53.3125 485.188 58.8125C482.812 64.3125 479.188 68.7188 474.312 72.0312C469.438 75.3438 462.656 77 453.969 77H430.766ZM440.609 69.6406H453.219C459.781 69.6406 464.688 68.6094 467.938 66.5469C471.219 64.4531 473.781 61.1562 475.625 56.6562C477.469 52.1562 478.391 47.1406 478.391 41.6094C478.391 36.7344 477.594 32.2969 476 28.2969C474.406 24.2656 471.828 21.0469 468.266 18.6406C464.703 16.2031 458.188 14.9844 448.719 14.9844H440.609V69.6406ZM502.672 77V7.625H512.328L547.25 61.2031V7.625H555.688V77H546.078L511.109 23.4219V77H502.672ZM565.484 77L593 7.625H602.75L629.844 77H619.203L611.656 57.7812H582.266L574.625 77H565.484ZM585.125 50.4688H608.797L596.984 20.5625L585.125 50.4688Z" fill="white"/>
<path d="M104.584 101.728C104.584 99.784 104.836 98.296 105.34 97.264C105.868 96.232 106.624 95.524 107.608 95.14C108.592 94.756 109.792 94.564 111.208 94.564C111.616 94.564 112.096 94.576 112.648 94.6C113.224 94.624 113.8 94.672 114.376 94.744C114.952 94.792 115.456 94.852 115.888 94.924C116.32 94.996 116.62 95.068 116.788 95.14L116.032 95.5V90.82H118.516L118.48 101.764C118.48 103.396 118.372 104.704 118.156 105.688C117.94 106.648 117.568 107.368 117.04 107.848C116.536 108.328 115.816 108.652 114.88 108.82C113.968 108.988 112.816 109.072 111.424 109.072C110.128 109.072 109.036 108.988 108.148 108.82C107.26 108.652 106.552 108.316 106.024 107.812C105.52 107.308 105.148 106.576 104.908 105.616C104.692 104.656 104.584 103.36 104.584 101.728ZM111.208 107.632C112.288 107.632 113.14 107.572 113.764 107.452C114.412 107.308 114.904 107.044 115.24 106.66C115.576 106.252 115.792 105.688 115.888 104.968C115.984 104.248 116.032 103.3 116.032 102.124V96.292C115.768 96.268 115.384 96.244 114.88 96.22C114.4 96.196 113.896 96.172 113.368 96.148C112.84 96.124 112.372 96.112 111.964 96.112C110.812 96.112 109.876 96.268 109.156 96.58C108.436 96.868 107.908 97.432 107.572 98.272C107.26 99.088 107.104 100.276 107.104 101.836C107.104 103.492 107.224 104.74 107.464 105.58C107.728 106.396 108.16 106.948 108.76 107.236C109.36 107.5 110.176 107.632 111.208 107.632ZM125.337 109.144C124.209 109.144 123.453 108.844 123.069 108.244C122.685 107.644 122.493 106.768 122.493 105.616V94.636H125.013V105.472C125.013 106.456 125.121 107.116 125.337 107.452C125.553 107.788 125.937 107.956 126.489 107.956C126.681 107.956 126.921 107.932 127.209 107.884C127.497 107.836 127.677 107.8 127.749 107.776V108.892C127.677 108.916 127.533 108.952 127.317 109C127.125 109.024 126.861 109.048 126.525 109.072C126.213 109.12 125.817 109.144 125.337 109.144ZM123.789 92.548C123.381 92.548 123.057 92.488 122.817 92.368C122.577 92.248 122.457 91.996 122.457 91.612C122.457 91.228 122.565 90.976 122.781 90.856C123.021 90.736 123.345 90.676 123.753 90.676C124.209 90.676 124.545 90.736 124.761 90.856C124.977 90.976 125.073 91.228 125.049 91.612C125.049 91.996 124.941 92.248 124.725 92.368C124.509 92.488 124.197 92.548 123.789 92.548ZM135.231 109.144C134.823 109.144 134.307 109.132 133.683 109.108C133.083 109.084 132.459 109.036 131.811 108.964C131.187 108.868 130.623 108.736 130.119 108.568C129.879 108.472 129.687 108.376 129.543 108.28C129.399 108.184 129.291 108.016 129.219 107.776C129.171 107.536 129.147 107.176 129.147 106.696C129.675 106.96 130.299 107.176 131.019 107.344C131.739 107.488 132.459 107.584 133.179 107.632C133.899 107.68 134.499 107.704 134.979 107.704C135.699 107.704 136.395 107.68 137.067 107.632C137.763 107.56 138.387 107.428 138.939 107.236C139.491 107.02 139.923 106.708 140.235 106.3C140.571 105.892 140.739 105.352 140.739 104.68C140.739 103.696 140.487 103.072 139.983 102.808C139.479 102.52 138.795 102.376 137.931 102.376H134.295C133.407 102.376 132.567 102.328 131.775 102.232C131.007 102.112 130.371 101.812 129.867 101.332C129.387 100.828 129.147 99.988 129.147 98.812C129.147 97.54 129.459 96.592 130.083 95.968C130.707 95.344 131.583 94.936 132.711 94.744C133.863 94.552 135.195 94.456 136.707 94.456C137.259 94.456 137.919 94.468 138.687 94.492C139.455 94.516 140.187 94.588 140.883 94.708C141.363 94.78 141.759 94.876 142.071 94.996C142.407 95.092 142.647 95.236 142.791 95.428C142.959 95.62 143.043 95.896 143.043 96.256V96.976C142.827 96.736 142.467 96.544 141.963 96.4C141.459 96.256 140.871 96.148 140.199 96.076C139.551 96.004 138.879 95.968 138.183 95.968C137.487 95.944 136.839 95.932 136.239 95.932C135.471 95.932 134.727 95.98 134.007 96.076C133.287 96.172 132.699 96.412 132.243 96.796C131.811 97.156 131.595 97.78 131.595 98.668C131.595 99.34 131.739 99.832 132.027 100.144C132.315 100.456 132.699 100.66 133.179 100.756C133.683 100.828 134.247 100.864 134.871 100.864H138.579C139.491 100.864 140.295 100.948 140.991 101.116C141.711 101.26 142.263 101.608 142.647 102.16C143.055 102.688 143.259 103.528 143.259 104.68C143.259 105.952 142.911 106.912 142.215 107.56C141.519 108.208 140.559 108.64 139.335 108.856C138.135 109.048 136.767 109.144 135.231 109.144ZM153.202 109.216C151.81 109.216 150.634 109.12 149.674 108.928C148.738 108.736 147.982 108.376 147.406 107.848C146.854 107.32 146.446 106.588 146.182 105.652C145.942 104.692 145.822 103.456 145.822 101.944C145.822 100.216 146.038 98.8 146.47 97.696C146.902 96.592 147.67 95.776 148.774 95.248C149.878 94.72 151.426 94.456 153.418 94.456C154.954 94.456 156.178 94.66 157.09 95.068C158.026 95.476 158.698 96.1 159.106 96.94C159.538 97.78 159.754 98.872 159.754 100.216V102.268H149.602C149.602 101.98 149.674 101.74 149.818 101.548C149.962 101.332 150.226 101.224 150.61 101.224H157.486L157.45 100.18C157.426 98.692 157.102 97.612 156.478 96.94C155.878 96.268 154.822 95.932 153.31 95.932C152.038 95.932 151.042 96.124 150.322 96.508C149.602 96.892 149.098 97.516 148.81 98.38C148.522 99.244 148.378 100.42 148.378 101.908C148.378 103.492 148.534 104.704 148.846 105.544C149.182 106.36 149.734 106.924 150.502 107.236C151.27 107.524 152.314 107.668 153.634 107.668C154.09 107.668 154.606 107.656 155.182 107.632C155.782 107.584 156.382 107.536 156.982 107.488C157.582 107.44 158.11 107.38 158.566 107.308C159.046 107.212 159.382 107.116 159.574 107.02V107.452C159.574 107.692 159.502 107.92 159.358 108.136C159.238 108.352 158.974 108.532 158.566 108.676C158.038 108.892 157.318 109.036 156.406 109.108C155.518 109.18 154.45 109.216 153.202 109.216ZM169.253 109.252C167.837 109.252 166.685 109.18 165.797 109.036C164.909 108.892 164.225 108.652 163.745 108.316C163.289 107.956 162.965 107.488 162.773 106.912C162.605 106.336 162.521 105.628 162.521 104.788C162.521 103.564 162.665 102.628 162.953 101.98C163.241 101.332 163.745 100.888 164.465 100.648C165.185 100.408 166.145 100.288 167.345 100.288C167.945 100.288 168.593 100.312 169.289 100.36C170.009 100.384 170.693 100.42 171.341 100.468C172.013 100.492 172.589 100.528 173.069 100.576C173.573 100.624 173.909 100.684 174.077 100.756C174.077 99.652 173.981 98.776 173.789 98.128C173.597 97.48 173.297 97 172.889 96.688C172.505 96.376 172.013 96.172 171.413 96.076C170.837 95.98 170.165 95.932 169.397 95.932C168.605 95.932 167.801 95.968 166.985 96.04C166.193 96.088 165.461 96.184 164.789 96.328C164.117 96.448 163.601 96.616 163.241 96.832V96.292C163.241 95.788 163.385 95.44 163.673 95.248C163.985 95.032 164.333 94.888 164.717 94.816C165.173 94.696 165.833 94.6 166.697 94.528C167.585 94.456 168.509 94.432 169.469 94.456C170.693 94.456 171.737 94.516 172.601 94.636C173.489 94.756 174.221 95.02 174.797 95.428C175.373 95.812 175.805 96.4 176.093 97.192C176.381 97.984 176.525 99.064 176.525 100.432V107.848C176.381 108.328 175.745 108.688 174.617 108.928C173.489 109.144 171.701 109.252 169.253 109.252ZM169.253 108.028C170.357 108.028 171.233 107.992 171.881 107.92C172.553 107.848 173.057 107.752 173.393 107.632C173.753 107.512 173.981 107.356 174.077 107.164V101.8C173.861 101.728 173.453 101.656 172.853 101.584C172.277 101.512 171.665 101.452 171.017 101.404C170.369 101.332 169.817 101.296 169.361 101.296C168.329 101.296 167.489 101.356 166.841 101.476C166.217 101.596 165.761 101.896 165.473 102.376C165.209 102.856 165.077 103.6 165.077 104.608C165.077 105.4 165.173 106.048 165.365 106.552C165.557 107.056 165.941 107.428 166.517 107.668C167.117 107.908 168.029 108.028 169.253 108.028ZM185.575 109.144C185.167 109.144 184.651 109.132 184.027 109.108C183.427 109.084 182.803 109.036 182.155 108.964C181.531 108.868 180.967 108.736 180.463 108.568C180.223 108.472 180.031 108.376 179.887 108.28C179.743 108.184 179.635 108.016 179.563 107.776C179.515 107.536 179.491 107.176 179.491 106.696C180.019 106.96 180.643 107.176 181.363 107.344C182.083 107.488 182.803 107.584 183.523 107.632C184.243 107.68 184.843 107.704 185.323 107.704C186.043 107.704 186.739 107.68 187.411 107.632C188.107 107.56 188.731 107.428 189.283 107.236C189.835 107.02 190.267 106.708 190.579 106.3C190.915 105.892 191.083 105.352 191.083 104.68C191.083 103.696 190.831 103.072 190.327 102.808C189.823 102.52 189.139 102.376 188.275 102.376H184.639C183.751 102.376 182.911 102.328 182.119 102.232C181.351 102.112 180.715 101.812 180.211 101.332C179.731 100.828 179.491 99.988 179.491 98.812C179.491 97.54 179.803 96.592 180.427 95.968C181.051 95.344 181.927 94.936 183.055 94.744C184.207 94.552 185.539 94.456 187.051 94.456C187.603 94.456 188.263 94.468 189.031 94.492C189.799 94.516 190.531 94.588 191.227 94.708C191.707 94.78 192.103 94.876 192.415 94.996C192.751 95.092 192.991 95.236 193.135 95.428C193.303 95.62 193.387 95.896 193.387 96.256V96.976C193.171 96.736 192.811 96.544 192.307 96.4C191.803 96.256 191.215 96.148 190.543 96.076C189.895 96.004 189.223 95.968 188.527 95.968C187.831 95.944 187.183 95.932 186.583 95.932C185.815 95.932 185.071 95.98 184.351 96.076C183.631 96.172 183.043 96.412 182.587 96.796C182.155 97.156 181.939 97.78 181.939 98.668C181.939 99.34 182.083 99.832 182.371 100.144C182.659 100.456 183.043 100.66 183.523 100.756C184.027 100.828 184.591 100.864 185.215 100.864H188.923C189.835 100.864 190.639 100.948 191.335 101.116C192.055 101.26 192.607 101.608 192.991 102.16C193.399 102.688 193.603 103.528 193.603 104.68C193.603 105.952 193.255 106.912 192.559 107.56C191.863 108.208 190.903 108.64 189.679 108.856C188.479 109.048 187.111 109.144 185.575 109.144ZM203.546 109.216C202.154 109.216 200.978 109.12 200.018 108.928C199.082 108.736 198.326 108.376 197.75 107.848C197.198 107.32 196.79 106.588 196.526 105.652C196.286 104.692 196.166 103.456 196.166 101.944C196.166 100.216 196.382 98.8 196.814 97.696C197.246 96.592 198.014 95.776 199.118 95.248C200.222 94.72 201.77 94.456 203.762 94.456C205.298 94.456 206.522 94.66 207.434 95.068C208.37 95.476 209.042 96.1 209.45 96.94C209.882 97.78 210.098 98.872 210.098 100.216V102.268H199.946C199.946 101.98 200.018 101.74 200.162 101.548C200.306 101.332 200.57 101.224 200.954 101.224H207.83L207.794 100.18C207.77 98.692 207.446 97.612 206.822 96.94C206.222 96.268 205.166 95.932 203.654 95.932C202.382 95.932 201.386 96.124 200.666 96.508C199.946 96.892 199.442 97.516 199.154 98.38C198.866 99.244 198.722 100.42 198.722 101.908C198.722 103.492 198.878 104.704 199.19 105.544C199.526 106.36 200.078 106.924 200.846 107.236C201.614 107.524 202.658 107.668 203.978 107.668C204.434 107.668 204.95 107.656 205.526 107.632C206.126 107.584 206.726 107.536 207.326 107.488C207.926 107.44 208.454 107.38 208.91 107.308C209.39 107.212 209.726 107.116 209.918 107.02V107.452C209.918 107.692 209.846 107.92 209.702 108.136C209.582 108.352 209.318 108.532 208.91 108.676C208.382 108.892 207.662 109.036 206.75 109.108C205.862 109.18 204.794 109.216 203.546 109.216ZM229.959 109.216C228.087 109.216 226.575 109.024 225.423 108.64C224.271 108.256 223.431 107.548 222.903 106.516C222.399 105.46 222.147 103.924 222.147 101.908C222.147 99.868 222.399 98.308 222.903 97.228C223.431 96.148 224.271 95.416 225.423 95.032C226.575 94.624 228.087 94.42 229.959 94.42C230.583 94.42 231.159 94.444 231.687 94.492C232.239 94.54 232.863 94.624 233.559 94.744C233.943 94.792 234.255 94.888 234.495 95.032C234.735 95.152 234.903 95.332 234.999 95.572C235.095 95.788 235.143 96.112 235.143 96.544C234.879 96.4 234.459 96.28 233.883 96.184C233.331 96.088 232.743 96.016 232.119 95.968C231.495 95.896 230.943 95.86 230.463 95.86C229.023 95.86 227.883 96.052 227.043 96.436C226.203 96.796 225.603 97.408 225.243 98.272C224.907 99.112 224.739 100.276 224.739 101.764C224.739 103.252 224.907 104.44 225.243 105.328C225.579 106.192 226.167 106.804 227.007 107.164C227.847 107.524 228.999 107.704 230.463 107.704C231.135 107.704 231.771 107.68 232.371 107.632C232.971 107.56 233.511 107.476 233.991 107.38C234.495 107.26 234.879 107.128 235.143 106.984V107.776C235.143 108.136 234.915 108.424 234.459 108.64C234.027 108.832 233.427 108.976 232.659 109.072C231.891 109.168 230.991 109.216 229.959 109.216ZM239.411 109C238.931 109 238.631 108.928 238.511 108.784C238.415 108.64 238.367 108.34 238.367 107.884V90.856H240.887V95.14C241.151 95.02 241.535 94.936 242.039 94.888C242.567 94.816 243.107 94.756 243.659 94.708C244.235 94.66 244.763 94.636 245.243 94.636C246.683 94.636 247.835 94.78 248.699 95.068C249.563 95.332 250.199 95.728 250.607 96.256C251.015 96.76 251.279 97.396 251.399 98.164C251.543 98.908 251.615 99.76 251.615 100.72V107.596C251.615 108.004 251.579 108.316 251.507 108.532C251.459 108.724 251.351 108.856 251.183 108.928C251.015 108.976 250.763 109 250.427 109H249.167V100.144C249.167 98.992 248.999 98.116 248.663 97.516C248.351 96.916 247.871 96.508 247.223 96.292C246.575 96.076 245.783 95.968 244.847 95.968C244.487 95.968 244.043 95.992 243.515 96.04C243.011 96.064 242.507 96.112 242.003 96.184C241.523 96.256 241.151 96.352 240.887 96.472V109H239.411ZM262.573 109.216C261.181 109.216 260.005 109.12 259.045 108.928C258.109 108.736 257.353 108.376 256.777 107.848C256.225 107.32 255.817 106.588 255.553 105.652C255.313 104.692 255.193 103.456 255.193 101.944C255.193 100.216 255.409 98.8 255.841 97.696C256.273 96.592 257.041 95.776 258.145 95.248C259.249 94.72 260.797 94.456 262.789 94.456C264.325 94.456 265.549 94.66 266.461 95.068C267.397 95.476 268.069 96.1 268.477 96.94C268.909 97.78 269.125 98.872 269.125 100.216V102.268H258.973C258.973 101.98 259.045 101.74 259.189 101.548C259.333 101.332 259.597 101.224 259.981 101.224H266.857L266.821 100.18C266.797 98.692 266.473 97.612 265.849 96.94C265.249 96.268 264.193 95.932 262.681 95.932C261.409 95.932 260.413 96.124 259.693 96.508C258.973 96.892 258.469 97.516 258.181 98.38C257.893 99.244 257.749 100.42 257.749 101.908C257.749 103.492 257.905 104.704 258.217 105.544C258.553 106.36 259.105 106.924 259.873 107.236C260.641 107.524 261.685 107.668 263.005 107.668C263.461 107.668 263.977 107.656 264.553 107.632C265.153 107.584 265.753 107.536 266.353 107.488C266.953 107.44 267.481 107.38 267.937 107.308C268.417 107.212 268.753 107.116 268.945 107.02V107.452C268.945 107.692 268.873 107.92 268.729 108.136C268.609 108.352 268.345 108.532 267.937 108.676C267.409 108.892 266.689 109.036 265.777 109.108C264.889 109.18 263.821 109.216 262.573 109.216ZM279.74 109.216C277.868 109.216 276.356 109.024 275.204 108.64C274.052 108.256 273.212 107.548 272.684 106.516C272.18 105.46 271.928 103.924 271.928 101.908C271.928 99.868 272.18 98.308 272.684 97.228C273.212 96.148 274.052 95.416 275.204 95.032C276.356 94.624 277.868 94.42 279.74 94.42C280.364 94.42 280.94 94.444 281.468 94.492C282.02 94.54 282.644 94.624 283.34 94.744C283.724 94.792 284.036 94.888 284.276 95.032C284.516 95.152 284.684 95.332 284.78 95.572C284.876 95.788 284.924 96.112 284.924 96.544C284.66 96.4 284.24 96.28 283.664 96.184C283.112 96.088 282.524 96.016 281.9 95.968C281.276 95.896 280.724 95.86 280.244 95.86C278.804 95.86 277.664 96.052 276.824 96.436C275.984 96.796 275.384 97.408 275.024 98.272C274.688 99.112 274.52 100.276 274.52 101.764C274.52 103.252 274.688 104.44 275.024 105.328C275.36 106.192 275.948 106.804 276.788 107.164C277.628 107.524 278.78 107.704 280.244 107.704C280.916 107.704 281.552 107.68 282.152 107.632C282.752 107.56 283.292 107.476 283.772 107.38C284.276 107.26 284.66 107.128 284.924 106.984V107.776C284.924 108.136 284.696 108.424 284.24 108.64C283.808 108.832 283.208 108.976 282.44 109.072C281.672 109.168 280.772 109.216 279.74 109.216ZM288.148 109V91.792C288.148 91.408 288.208 91.144 288.328 91C288.448 90.856 288.712 90.784 289.12 90.784H290.668V102.376L297.364 95.284C297.604 95.044 297.844 94.876 298.084 94.78C298.348 94.66 298.708 94.588 299.164 94.564C299.524 94.564 299.848 94.576 300.136 94.6C300.424 94.6 300.688 94.612 300.928 94.636C300.856 94.708 300.724 94.828 300.532 94.996C300.34 95.14 300.124 95.308 299.884 95.5C299.668 95.668 299.464 95.836 299.272 96.004L294.592 100.72L300.784 107.668C301 107.932 301.216 108.172 301.432 108.388C301.672 108.604 301.9 108.808 302.116 109C301.66 109.024 301.216 109.036 300.784 109.036C300.352 109.036 299.944 109.036 299.56 109.036C299.152 109.036 298.84 108.976 298.624 108.856C298.408 108.736 298.168 108.544 297.904 108.28L292.828 102.556L290.668 104.572V109H288.148ZM310.21 109.216C308.818 109.216 307.642 109.12 306.682 108.928C305.746 108.736 304.99 108.376 304.414 107.848C303.862 107.32 303.454 106.588 303.19 105.652C302.95 104.692 302.83 103.456 302.83 101.944C302.83 100.216 303.046 98.8 303.478 97.696C303.91 96.592 304.678 95.776 305.782 95.248C306.886 94.72 308.434 94.456 310.426 94.456C311.962 94.456 313.186 94.66 314.098 95.068C315.034 95.476 315.706 96.1 316.114 96.94C316.546 97.78 316.762 98.872 316.762 100.216V102.268H306.61C306.61 101.98 306.682 101.74 306.826 101.548C306.97 101.332 307.234 101.224 307.618 101.224H314.494L314.458 100.18C314.434 98.692 314.11 97.612 313.486 96.94C312.886 96.268 311.83 95.932 310.318 95.932C309.046 95.932 308.05 96.124 307.33 96.508C306.61 96.892 306.106 97.516 305.818 98.38C305.53 99.244 305.386 100.42 305.386 101.908C305.386 103.492 305.542 104.704 305.854 105.544C306.19 106.36 306.742 106.924 307.51 107.236C308.278 107.524 309.322 107.668 310.642 107.668C311.098 107.668 311.614 107.656 312.19 107.632C312.79 107.584 313.39 107.536 313.99 107.488C314.59 107.44 315.118 107.38 315.574 107.308C316.054 107.212 316.39 107.116 316.582 107.02V107.452C316.582 107.692 316.51 107.92 316.366 108.136C316.246 108.352 315.982 108.532 315.574 108.676C315.046 108.892 314.326 109.036 313.414 109.108C312.526 109.18 311.458 109.216 310.21 109.216ZM322.66 109H321.076C320.764 109 320.524 108.928 320.356 108.784C320.212 108.616 320.14 108.316 320.14 107.884V95.356C320.668 95.188 321.388 95.008 322.3 94.816C323.236 94.624 324.388 94.528 325.756 94.528C327.052 94.528 328.072 94.624 328.816 94.816C329.584 94.984 330.136 95.224 330.472 95.536C330.832 95.848 331.06 96.232 331.156 96.688C331.276 97.12 331.336 97.612 331.336 98.164H328.924L328.888 97.66C328.864 97.108 328.684 96.712 328.348 96.472C328.012 96.208 327.616 96.052 327.16 96.004C326.704 95.932 326.248 95.896 325.792 95.896C325.096 95.896 324.472 95.956 323.92 96.076C323.392 96.196 322.972 96.352 322.66 96.544V109ZM348.489 109.144C348.081 109.144 347.565 109.132 346.941 109.108C346.341 109.084 345.717 109.036 345.069 108.964C344.445 108.868 343.881 108.736 343.377 108.568C343.137 108.472 342.945 108.376 342.801 108.28C342.657 108.184 342.549 108.016 342.477 107.776C342.429 107.536 342.405 107.176 342.405 106.696C342.933 106.96 343.557 107.176 344.277 107.344C344.997 107.488 345.717 107.584 346.437 107.632C347.157 107.68 347.757 107.704 348.237 107.704C348.957 107.704 349.653 107.68 350.325 107.632C351.021 107.56 351.645 107.428 352.197 107.236C352.749 107.02 353.181 106.708 353.493 106.3C353.829 105.892 353.997 105.352 353.997 104.68C353.997 103.696 353.745 103.072 353.241 102.808C352.737 102.52 352.053 102.376 351.189 102.376H347.553C346.665 102.376 345.825 102.328 345.033 102.232C344.265 102.112 343.629 101.812 343.125 101.332C342.645 100.828 342.405 99.988 342.405 98.812C342.405 97.54 342.717 96.592 343.341 95.968C343.965 95.344 344.841 94.936 345.969 94.744C347.121 94.552 348.453 94.456 349.965 94.456C350.517 94.456 351.177 94.468 351.945 94.492C352.713 94.516 353.445 94.588 354.141 94.708C354.621 94.78 355.017 94.876 355.329 94.996C355.665 95.092 355.905 95.236 356.049 95.428C356.217 95.62 356.301 95.896 356.301 96.256V96.976C356.085 96.736 355.725 96.544 355.221 96.4C354.717 96.256 354.129 96.148 353.457 96.076C352.809 96.004 352.137 95.968 351.441 95.968C350.745 95.944 350.097 95.932 349.497 95.932C348.729 95.932 347.985 95.98 347.265 96.076C346.545 96.172 345.957 96.412 345.501 96.796C345.069 97.156 344.853 97.78 344.853 98.668C344.853 99.34 344.997 99.832 345.285 100.144C345.573 100.456 345.957 100.66 346.437 100.756C346.941 100.828 347.505 100.864 348.129 100.864H351.837C352.749 100.864 353.553 100.948 354.249 101.116C354.969 101.26 355.521 101.608 355.905 102.16C356.313 102.688 356.517 103.528 356.517 104.68C356.517 105.952 356.169 106.912 355.473 107.56C354.777 108.208 353.817 108.64 352.593 108.856C351.393 109.048 350.025 109.144 348.489 109.144ZM362.536 109.144C361.408 109.144 360.652 108.844 360.268 108.244C359.884 107.644 359.692 106.768 359.692 105.616V94.636H362.212V105.472C362.212 106.456 362.32 107.116 362.536 107.452C362.752 107.788 363.136 107.956 363.688 107.956C363.88 107.956 364.12 107.932 364.408 107.884C364.696 107.836 364.876 107.8 364.948 107.776V108.892C364.876 108.916 364.732 108.952 364.516 109C364.324 109.024 364.06 109.048 363.724 109.072C363.412 109.12 363.016 109.144 362.536 109.144ZM360.988 92.548C360.58 92.548 360.256 92.488 360.016 92.368C359.776 92.248 359.656 91.996 359.656 91.612C359.656 91.228 359.764 90.976 359.98 90.856C360.22 90.736 360.544 90.676 360.952 90.676C361.408 90.676 361.744 90.736 361.96 90.856C362.176 90.976 362.272 91.228 362.248 91.612C362.248 91.996 362.14 92.248 361.924 92.368C361.708 92.488 361.396 92.548 360.988 92.548ZM370.99 109.108C370.174 109.108 369.538 109.012 369.082 108.82C368.626 108.604 368.29 108.244 368.074 107.74C367.858 107.236 367.75 106.552 367.75 105.688V96.04H366.382V94.636H367.75V92.044C367.75 91.684 367.774 91.42 367.822 91.252C367.894 91.06 368.002 90.94 368.146 90.892C368.29 90.844 368.494 90.82 368.758 90.82H370.306C370.306 90.868 370.294 90.976 370.27 91.144C370.27 91.288 370.27 91.504 370.27 91.792V94.636H373.618V96.04H370.27V105.4C370.27 106.336 370.366 106.996 370.558 107.38C370.75 107.764 371.182 107.956 371.854 107.956C372.118 107.956 372.394 107.932 372.682 107.884C372.97 107.836 373.174 107.788 373.294 107.74V108.856C373.15 108.88 372.874 108.928 372.466 109C372.058 109.072 371.566 109.108 370.99 109.108ZM382.984 109.216C381.592 109.216 380.416 109.12 379.456 108.928C378.52 108.736 377.764 108.376 377.188 107.848C376.636 107.32 376.228 106.588 375.964 105.652C375.724 104.692 375.604 103.456 375.604 101.944C375.604 100.216 375.82 98.8 376.252 97.696C376.684 96.592 377.452 95.776 378.556 95.248C379.66 94.72 381.208 94.456 383.2 94.456C384.736 94.456 385.96 94.66 386.872 95.068C387.808 95.476 388.48 96.1 388.888 96.94C389.32 97.78 389.536 98.872 389.536 100.216V102.268H379.384C379.384 101.98 379.456 101.74 379.6 101.548C379.744 101.332 380.008 101.224 380.392 101.224H387.268L387.232 100.18C387.208 98.692 386.884 97.612 386.26 96.94C385.66 96.268 384.604 95.932 383.092 95.932C381.82 95.932 380.824 96.124 380.104 96.508C379.384 96.892 378.88 97.516 378.592 98.38C378.304 99.244 378.16 100.42 378.16 101.908C378.16 103.492 378.316 104.704 378.628 105.544C378.964 106.36 379.516 106.924 380.284 107.236C381.052 107.524 382.096 107.668 383.416 107.668C383.872 107.668 384.388 107.656 384.964 107.632C385.564 107.584 386.164 107.536 386.764 107.488C387.364 107.44 387.892 107.38 388.348 107.308C388.828 107.212 389.164 107.116 389.356 107.02V107.452C389.356 107.692 389.284 107.92 389.14 108.136C389.02 108.352 388.756 108.532 388.348 108.676C387.82 108.892 387.1 109.036 386.188 109.108C385.3 109.18 384.232 109.216 382.984 109.216Z" fill="#C6C8E9"/>
</g>
<defs>
<clipPath id="clip0_104_2">
<rect width="688" height="144" fill="white"/>
</clipPath>
</defs>
</svg>
